<mxfile host="app.diagrams.net" agent="Mozilla/5.0 (X11; Linux x86_64; rv:138.0) Gecko/20100101 Firefox/138.0" version="27.0.4">
  <diagram name="PÃ¡gina-1" id="iDRGrWhm81-sx4A3ZJ55">
    <mxGraphModel dx="1307" dy="568" grid="1" gridSize="10" guides="1" tooltips="1" connect="1" arrows="1" fold="1" page="1" pageScale="1" pageWidth="827" pageHeight="1169" math="0" shadow="0">
      <root>
        <mxCell id="0" />
        <mxCell id="1" parent="0" />
        <mxCell id="lo2U6jvBNebkg7TN5Jlp-1" value="" style="endArrow=none;dashed=1;html=1;dashPattern=1 3;strokeWidth=2;rounded=0;" edge="1" parent="1">
          <mxGeometry width="50" height="50" relative="1" as="geometry">
            <mxPoint x="80" y="720" as="sourcePoint" />
            <mxPoint x="80" y="120" as="targetPoint" />
          </mxGeometry>
        </mxCell>
        <mxCell id="lo2U6jvBNebkg7TN5Jlp-2" value="" style="endArrow=none;dashed=1;html=1;dashPattern=1 3;strokeWidth=2;rounded=0;" edge="1" parent="1">
          <mxGeometry width="50" height="50" relative="1" as="geometry">
            <mxPoint x="240" y="720" as="sourcePoint" />
            <mxPoint x="240" y="120" as="targetPoint" />
          </mxGeometry>
        </mxCell>
        <mxCell id="lo2U6jvBNebkg7TN5Jlp-3" value="" style="endArrow=none;dashed=1;html=1;dashPattern=1 3;strokeWidth=2;rounded=0;" edge="1" parent="1">
          <mxGeometry width="50" height="50" relative="1" as="geometry">
            <mxPoint x="400" y="720" as="sourcePoint" />
            <mxPoint x="400" y="120" as="targetPoint" />
          </mxGeometry>
        </mxCell>
        <mxCell id="lo2U6jvBNebkg7TN5Jlp-4" value="" style="endArrow=none;dashed=1;html=1;dashPattern=1 3;strokeWidth=2;rounded=0;" edge="1" parent="1">
          <mxGeometry width="50" height="50" relative="1" as="geometry">
            <mxPoint x="600" y="720" as="sourcePoint" />
            <mxPoint x="600" y="120" as="targetPoint" />
          </mxGeometry>
        </mxCell>
        <mxCell id="lo2U6jvBNebkg7TN5Jlp-6" value="user" style="text;html=1;align=center;verticalAlign=middle;whiteSpace=wrap;rounded=0;" vertex="1" parent="1">
          <mxGeometry x="50" y="90" width="60" height="30" as="geometry" />
        </mxCell>
        <mxCell id="lo2U6jvBNebkg7TN5Jlp-7" value="UI" style="text;html=1;align=center;verticalAlign=middle;whiteSpace=wrap;rounded=0;" vertex="1" parent="1">
          <mxGeometry x="210" y="90" width="60" height="30" as="geometry" />
        </mxCell>
        <mxCell id="lo2U6jvBNebkg7TN5Jlp-8" value="calculadora" style="text;html=1;align=center;verticalAlign=middle;whiteSpace=wrap;rounded=0;" vertex="1" parent="1">
          <mxGeometry x="570" y="90" width="60" height="30" as="geometry" />
        </mxCell>
        <mxCell id="lo2U6jvBNebkg7TN5Jlp-9" value="controlador" style="text;html=1;align=center;verticalAlign=middle;whiteSpace=wrap;rounded=0;" vertex="1" parent="1">
          <mxGeometry x="370" y="90" width="60" height="30" as="geometry" />
        </mxCell>
        <mxCell id="lo2U6jvBNebkg7TN5Jlp-11" value="operacion(op, num1, num)" style="html=1;verticalAlign=bottom;endArrow=block;curved=0;rounded=0;" edge="1" parent="1">
          <mxGeometry width="80" relative="1" as="geometry">
            <mxPoint x="80" y="140" as="sourcePoint" />
            <mxPoint x="240" y="140" as="targetPoint" />
          </mxGeometry>
        </mxCell>
        <mxCell id="lo2U6jvBNebkg7TN5Jlp-12" value="verificacion(op, num1, num2)" style="html=1;verticalAlign=bottom;endArrow=block;curved=0;rounded=0;" edge="1" parent="1">
          <mxGeometry width="80" relative="1" as="geometry">
            <mxPoint x="230" y="350" as="sourcePoint" />
            <mxPoint x="390" y="350" as="targetPoint" />
          </mxGeometry>
        </mxCell>
        <mxCell id="lo2U6jvBNebkg7TN5Jlp-13" value="operar()" style="html=1;verticalAlign=bottom;endArrow=block;curved=0;rounded=0;" edge="1" parent="1">
          <mxGeometry width="80" relative="1" as="geometry">
            <mxPoint x="390" y="449.52" as="sourcePoint" />
            <mxPoint x="590" y="449.52" as="targetPoint" />
          </mxGeometry>
        </mxCell>
        <mxCell id="lo2U6jvBNebkg7TN5Jlp-14" value="presionar &#39;=&#39;" style="html=1;verticalAlign=bottom;endArrow=block;curved=0;rounded=0;" edge="1" parent="1">
          <mxGeometry width="80" relative="1" as="geometry">
            <mxPoint x="80" y="320" as="sourcePoint" />
            <mxPoint x="240" y="320" as="targetPoint" />
          </mxGeometry>
        </mxCell>
        <mxCell id="lo2U6jvBNebkg7TN5Jlp-15" value="verificarResultado(resultado)" style="html=1;verticalAlign=bottom;endArrow=block;curved=0;rounded=0;" edge="1" parent="1">
          <mxGeometry width="80" relative="1" as="geometry">
            <mxPoint x="590" y="479.52" as="sourcePoint" />
            <mxPoint x="390" y="479.52" as="targetPoint" />
          </mxGeometry>
        </mxCell>
        <mxCell id="lo2U6jvBNebkg7TN5Jlp-16" value="mostrarResultado()" style="html=1;verticalAlign=bottom;endArrow=block;curved=0;rounded=0;" edge="1" parent="1">
          <mxGeometry width="80" relative="1" as="geometry">
            <mxPoint x="590" y="530" as="sourcePoint" />
            <mxPoint x="230" y="530" as="targetPoint" />
          </mxGeometry>
        </mxCell>
        <mxCell id="lo2U6jvBNebkg7TN5Jlp-17" value="mostrarResultado()" style="html=1;verticalAlign=bottom;endArrow=block;curved=0;rounded=0;" edge="1" parent="1">
          <mxGeometry width="80" relative="1" as="geometry">
            <mxPoint x="230" y="550" as="sourcePoint" />
            <mxPoint x="70" y="550" as="targetPoint" />
          </mxGeometry>
        </mxCell>
        <mxCell id="lo2U6jvBNebkg7TN5Jlp-18" value="alt" style="shape=umlFrame;whiteSpace=wrap;html=1;pointerEvents=0;" vertex="1" parent="1">
          <mxGeometry x="210" y="360" width="410" height="140" as="geometry" />
        </mxCell>
        <mxCell id="lo2U6jvBNebkg7TN5Jlp-19" value="entrada valida" style="text;html=1;align=center;verticalAlign=middle;whiteSpace=wrap;rounded=0;" vertex="1" parent="1">
          <mxGeometry x="230" y="430" width="90" height="20" as="geometry" />
        </mxCell>
        <mxCell id="lo2U6jvBNebkg7TN5Jlp-20" value="presionar &#39;copiar&#39;" style="html=1;verticalAlign=bottom;endArrow=block;curved=0;rounded=0;" edge="1" parent="1">
          <mxGeometry width="80" relative="1" as="geometry">
            <mxPoint x="70" y="620" as="sourcePoint" />
            <mxPoint x="230" y="620" as="targetPoint" />
          </mxGeometry>
        </mxCell>
        <mxCell id="lo2U6jvBNebkg7TN5Jlp-24" value="devolverResultado()" style="html=1;verticalAlign=bottom;endArrow=block;curved=0;rounded=0;exitX=1.001;exitY=0.864;exitDx=0;exitDy=0;exitPerimeter=0;entryX=0.003;entryY=0.871;entryDx=0;entryDy=0;entryPerimeter=0;" edge="1" parent="1">
          <mxGeometry width="80" relative="1" as="geometry">
            <mxPoint x="588.96" y="670" as="sourcePoint" />
            <mxPoint x="70.00000000000006" y="670.8399999999999" as="targetPoint" />
          </mxGeometry>
        </mxCell>
        <mxCell id="lo2U6jvBNebkg7TN5Jlp-35" value="Copiar respuesta" style="text;html=1;align=center;verticalAlign=middle;whiteSpace=wrap;rounded=0;" vertex="1" parent="1">
          <mxGeometry x="110" y="580" width="100" height="20" as="geometry" />
        </mxCell>
        <mxCell id="lo2U6jvBNebkg7TN5Jlp-37" value="mostrarCopiado()" style="html=1;verticalAlign=bottom;endArrow=block;curved=0;rounded=0;" edge="1" parent="1">
          <mxGeometry width="80" relative="1" as="geometry">
            <mxPoint x="389" y="639.66" as="sourcePoint" />
            <mxPoint x="230" y="639.66" as="targetPoint" />
          </mxGeometry>
        </mxCell>
        <mxCell id="lo2U6jvBNebkg7TN5Jlp-39" value="Error(&#39;Dato no valido&#39;)" style="html=1;verticalAlign=bottom;endArrow=block;curved=0;rounded=0;" edge="1" parent="1">
          <mxGeometry width="80" relative="1" as="geometry">
            <mxPoint x="390" y="410" as="sourcePoint" />
            <mxPoint x="230" y="410" as="targetPoint" />
          </mxGeometry>
        </mxCell>
        <mxCell id="lo2U6jvBNebkg7TN5Jlp-40" value="" style="endArrow=none;dashed=1;html=1;dashPattern=1 3;strokeWidth=2;rounded=0;entryX=1;entryY=0.506;entryDx=0;entryDy=0;entryPerimeter=0;exitX=0.004;exitY=0.514;exitDx=0;exitDy=0;exitPerimeter=0;" edge="1" parent="1" source="lo2U6jvBNebkg7TN5Jlp-18" target="lo2U6jvBNebkg7TN5Jlp-18">
          <mxGeometry width="50" height="50" relative="1" as="geometry">
            <mxPoint x="227.84000000000003" y="429.28" as="sourcePoint" />
            <mxPoint x="592.16" y="430" as="targetPoint" />
          </mxGeometry>
        </mxCell>
        <mxCell id="lo2U6jvBNebkg7TN5Jlp-41" value="opt" style="shape=umlFrame;whiteSpace=wrap;html=1;pointerEvents=0;" vertex="1" parent="1">
          <mxGeometry x="50" y="580" width="560" height="120" as="geometry" />
        </mxCell>
        <mxCell id="lo2U6jvBNebkg7TN5Jlp-42" value="opt" style="shape=umlFrame;whiteSpace=wrap;html=1;pointerEvents=0;" vertex="1" parent="1">
          <mxGeometry x="50" y="160" width="570" height="120" as="geometry" />
        </mxCell>
        <mxCell id="lo2U6jvBNebkg7TN5Jlp-43" value="borrar datos" style="text;html=1;align=center;verticalAlign=middle;whiteSpace=wrap;rounded=0;" vertex="1" parent="1">
          <mxGeometry x="110" y="160" width="100" height="20" as="geometry" />
        </mxCell>
        <mxCell id="lo2U6jvBNebkg7TN5Jlp-44" value="Mostrar dato" style="text;html=1;align=center;verticalAlign=middle;whiteSpace=wrap;rounded=0;" vertex="1" parent="1">
          <mxGeometry x="270" y="360" width="100" height="20" as="geometry" />
        </mxCell>
        <mxCell id="lo2U6jvBNebkg7TN5Jlp-45" value="presionar &#39;&amp;lt;--&#39;" style="html=1;verticalAlign=bottom;endArrow=block;curved=0;rounded=0;" edge="1" parent="1">
          <mxGeometry width="80" relative="1" as="geometry">
            <mxPoint x="80" y="219.58" as="sourcePoint" />
            <mxPoint x="240" y="219.58" as="targetPoint" />
          </mxGeometry>
        </mxCell>
        <mxCell id="lo2U6jvBNebkg7TN5Jlp-46" value="borrar dato()" style="html=1;verticalAlign=bottom;endArrow=block;curved=0;rounded=0;" edge="1" parent="1">
          <mxGeometry width="80" relative="1" as="geometry">
            <mxPoint x="240" y="240" as="sourcePoint" />
            <mxPoint x="600" y="240" as="targetPoint" />
          </mxGeometry>
        </mxCell>
        <mxCell id="lo2U6jvBNebkg7TN5Jlp-47" value="seleccionar(dato)" style="html=1;verticalAlign=bottom;endArrow=block;curved=0;rounded=0;" edge="1" parent="1">
          <mxGeometry width="80" relative="1" as="geometry">
            <mxPoint x="80" y="200" as="sourcePoint" />
            <mxPoint x="240" y="200" as="targetPoint" />
          </mxGeometry>
        </mxCell>
      </root>
    </mxGraphModel>
  </diagram>
</mxfile>
